<?xml version="1.0" encoding="UTF-8" standalone="no"?>
<!-- Created with Inkscape (http://www.inkscape.org/) -->

<svg
   xmlns:dc="http://purl.org/dc/elements/1.1/"
   xmlns:cc="http://creativecommons.org/ns#"
   xmlns:rdf="http://www.w3.org/1999/02/22-rdf-syntax-ns#"
   xmlns:svg="http://www.w3.org/2000/svg"
   xmlns="http://www.w3.org/2000/svg"
   xmlns:sodipodi="http://sodipodi.sourceforge.net/DTD/sodipodi-0.dtd"
   xmlns:inkscape="http://www.inkscape.org/namespaces/inkscape"
   width="256mm"
   height="256mm"
   viewBox="0 0 256 256"
   version="1.1"
   id="svg8"
   sodipodi:docname="12.svg"
   inkscape:version="0.92.3 (2405546, 2018-03-11)">
  <defs
     id="defs2" />
  <sodipodi:namedview
     id="base"
     pagecolor="#ffffff"
     bordercolor="#666666"
     borderopacity="1.0"
     inkscape:pageopacity="0.0"
     inkscape:pageshadow="2"
     inkscape:zoom="0.7"
     inkscape:cx="548.40367"
     inkscape:cy="478.28966"
     inkscape:document-units="mm"
     inkscape:current-layer="layer1"
     showgrid="false"
     inkscape:window-width="1920"
     inkscape:window-height="1137"
     inkscape:window-x="-8"
     inkscape:window-y="-8"
     inkscape:window-maximized="1" />
  <metadata
     id="metadata5">
    <rdf:RDF>
      <cc:Work
         rdf:about="">
        <dc:format>image/svg+xml</dc:format>
        <dc:type
           rdf:resource="http://purl.org/dc/dcmitype/StillImage" />
        <dc:title></dc:title>
      </cc:Work>
    </rdf:RDF>
  </metadata>
  <g
     inkscape:label="Layer 1"
     inkscape:groupmode="layer"
     id="layer1"
     transform="translate(0,-41)">
    <g
       aria-label="🕛"
       transform="matrix(0.26458333,0,0,0.26458333,-9.7261345,125.22687)"
       style="font-style:normal;font-variant:normal;font-weight:normal;font-stretch:normal;font-size:26.66666603px;line-height:125%;font-family:'Century Gothic';-inkscape-font-specification:'Century Gothic';letter-spacing:0px;word-spacing:0px;fill:#000000;fill-opacity:1;stroke:none;stroke-width:1px;stroke-linecap:butt;stroke-linejoin:miter;stroke-opacity:1"
       id="flowRoot815">
      <path
         d="m 543.97723,125.07716 q 10.74219,6.1849 16.92708,17.25261 6.51042,10.74219 6.51042,23.11198 0,9.76562 -3.90625,18.22917 -3.58073,8.46354 -10.09115,14.97395 -6.18489,6.1849 -14.64844,10.09115 -8.46354,3.58073 -18.22916,3.58073 -9.76563,0 -18.22917,-3.58073 -8.46354,-3.90625 -14.97396,-10.09115 -6.18489,-6.51041 -10.09114,-14.97395 -3.58073,-8.46355 -3.58073,-18.22917 0,-12.36979 6.18489,-23.11198 6.51042,-11.06771 17.25261,-17.25261 V 1.7047642 q 0,-9.7656253 6.83593,-16.6015632 6.83594,-6.835937 16.60157,-6.835937 9.76562,0 16.60156,6.835937 6.83594,6.8359379 6.83594,16.6015632 z m -23.4375,-333.98438 q 51.43229,0 99.28385,13.34635 47.85157,13.34636 89.51824,37.76042 41.66666,24.41406 75.84635,58.593753 34.17969,34.179688 58.59375,75.846356 24.41407,41.666668 37.76042,89.518232 13.34636,47.851569 13.34636,99.283859 0,51.75781 -13.34636,99.60938 -13.34635,47.52604 -37.76042,89.19271 -24.41406,41.66667 -58.59375,75.84635 -34.17969,34.17969 -75.84635,58.59376 -41.66667,24.41406 -89.51824,37.76041 -47.85156,13.34636 -99.28385,13.34636 -51.75782,0 -99.60938,-13.34636 -47.52604,-13.34635 -89.19271,-37.76041 -41.66667,-24.41407 -75.84636,-58.59376 -34.17969,-34.17968 -58.59375,-75.84635 -24.41406,-41.66667 -37.76042,-89.51823 -13.34635,-47.85157 -13.34635,-99.28386 0,-51.43229 13.34635,-99.283859 13.34636,-47.851564 37.76042,-89.518232 24.41406,-41.666668 58.59375,-75.846356 34.17969,-34.179693 75.84636,-58.593753 41.66667,-24.41406 89.19271,-37.76042 47.85156,-13.34635 99.60938,-13.34635 z m 0,701.82294 q 45.24739,0 86.91406,-11.71875 41.99219,-11.71875 78.45053,-33.20313 36.45833,-21.15885 66.08073,-50.78125 29.94791,-29.94792 51.10677,-66.40625 21.48438,-36.45834 33.20313,-78.12501 11.71875,-41.99218 11.71875,-87.23958 0,-45.2474 -11.71875,-86.914067 Q 824.5762,36.535494 803.09182,0.07716 q -21.15886,-36.458334 -51.10677,-66.080731 -29.6224,-29.947918 -66.08073,-51.106769 -36.45834,-21.48438 -78.45053,-33.20313 -41.66667,-11.71875 -86.91406,-11.71875 -45.2474,0 -87.23959,11.71875 -41.66667,11.71875 -78.125,33.20313 -36.45834,21.158851 -66.40625,51.106769 -29.6224,29.622397 -51.10678,66.080731 -21.15885,36.458334 -32.8776,78.450523 -11.71875,41.666667 -11.71875,86.914067 0,45.2474 11.71875,87.23958 11.71875,41.66667 32.8776,78.12501 21.48438,36.45833 51.10678,66.40625 29.94791,29.6224 66.40625,50.78125 36.45833,21.48438 78.125,33.20313 41.99219,11.71875 87.23959,11.71875 z m 0,-631.51044 q 41.99219,0 80.72917,11.06771 39.0625,10.74219 72.59114,30.598959 33.85417,19.53125 61.52344,47.526043 27.9948,27.669272 47.52605,61.523439 19.85677,33.528647 30.59896,72.591148 11.06771,38.736981 11.06771,80.729171 0,41.99219 -11.06771,81.05469 -10.74219,38.73698 -30.59896,72.59115 -19.53125,33.85416 -47.20053,61.52344 -27.66927,27.66927 -61.52343,47.20052 -33.85417,19.85677 -72.91667,30.59896 -38.73698,11.06771 -80.72917,11.06771 -41.99219,0 -81.05469,-11.06771 -38.73698,-10.74219 -72.59115,-30.59896 -33.85417,-19.53125 -61.52344,-47.20052 -27.66927,-27.66928 -47.52604,-61.52344 -19.53125,-33.85417 -30.59896,-72.59115 -10.74219,-39.0625 -10.74219,-81.05469 0,-41.99219 10.74219,-80.729171 11.06771,-39.062501 30.59896,-72.916669 19.85677,-33.854167 47.52604,-61.523439 27.66927,-27.669272 61.52344,-47.200522 33.85417,-19.856769 72.59115,-30.598959 39.0625,-11.06771 81.05469,-11.06771 z m 0,584.96096 q 38.73698,0 74.54427,-10.09115 35.80729,-10.09115 67.05729,-28.32031 31.25001,-18.22917 56.64063,-43.94532 25.71615,-25.71614 43.94531,-56.96614 18.22917,-31.25001 28.32032,-67.0573 10.09114,-35.80729 10.09114,-74.54427 0,-38.73698 -10.09114,-74.544275 Q 781.28192,54.764662 762.72723,23.840182 744.49807,-7.4098194 718.78192,-32.800445 693.3913,-58.516592 662.14129,-76.745759 631.21681,-95.300447 595.084,-105.06607 q -35.80729,-10.09115 -74.54427,-10.09115 -38.73698,0 -74.54428,10.09115 -35.80729,10.091144 -67.05729,28.320311 -31.25,18.229167 -56.96615,43.945314 -25.71614,25.3906256 -43.94531,56.640627 -18.22917,31.250001 -28.32031,67.057293 -10.09115,35.807295 -10.09115,74.544275 0,38.73698 10.09115,74.54427 10.09114,35.80729 28.32031,67.0573 18.22917,31.25 43.94531,56.96614 25.71615,25.71615 56.96615,43.94532 31.25,18.22916 67.05729,28.32031 35.8073,10.09115 74.54428,10.09115 z"
         style="font-style:normal;font-variant:normal;font-weight:normal;font-stretch:normal;font-size:666.66668701px;font-family:SimSun;-inkscape-font-specification:SimSun"
         id="path875"
         inkscape:connector-curvature="0" />
    </g>
  </g>
</svg>
